<mxfile host="Electron" modified="2025-09-07T00:51:38.473Z" agent="Mozilla/5.0 (Windows NT 10.0; Win64; x64) AppleWebKit/537.36 (KHTML, like Gecko) draw.io/24.4.8 Chrome/124.0.6367.207 Electron/30.0.6 Safari/537.36" etag="WNkv55SsHHdnQjrubHSP" version="24.4.8" type="device">
  <diagram name="Page-1" id="aaaa8250-4180-3840-79b5-4cada1eebb92">
    <mxGraphModel dx="584" dy="836" grid="1" gridSize="10" guides="1" tooltips="1" connect="1" arrows="1" fold="1" page="1" pageScale="1" pageWidth="850" pageHeight="1100" background="none" math="0" shadow="0">
      <root>
        <mxCell id="0" />
        <mxCell id="1" parent="0" />
        <mxCell id="HbXS8LAjoYjg2OrgYMof-16" style="edgeStyle=orthogonalEdgeStyle;rounded=0;orthogonalLoop=1;jettySize=auto;html=1;exitX=1;exitY=0.5;exitDx=0;exitDy=0;exitPerimeter=0;" edge="1" parent="1" source="HbXS8LAjoYjg2OrgYMof-5" target="HbXS8LAjoYjg2OrgYMof-6">
          <mxGeometry relative="1" as="geometry" />
        </mxCell>
        <mxCell id="HbXS8LAjoYjg2OrgYMof-5" value="" style="sketch=0;points=[[0,0,0],[0.25,0,0],[0.5,0,0],[0.75,0,0],[1,0,0],[0,1,0],[0.25,1,0],[0.5,1,0],[0.75,1,0],[1,1,0],[0,0.25,0],[0,0.5,0],[0,0.75,0],[1,0.25,0],[1,0.5,0],[1,0.75,0]];outlineConnect=0;fontColor=#232F3E;fillColor=#8C4FFF;strokeColor=#ffffff;dashed=0;verticalLabelPosition=bottom;verticalAlign=top;align=center;html=1;fontSize=12;fontStyle=0;aspect=fixed;shape=mxgraph.aws4.resourceIcon;resIcon=mxgraph.aws4.api_gateway;" vertex="1" parent="1">
          <mxGeometry x="1100" y="620" width="120" height="120" as="geometry" />
        </mxCell>
        <mxCell id="HbXS8LAjoYjg2OrgYMof-6" value="" style="sketch=0;outlineConnect=0;fontColor=#232F3E;gradientColor=none;fillColor=#7AA116;strokeColor=none;dashed=0;verticalLabelPosition=bottom;verticalAlign=top;align=center;html=1;fontSize=12;fontStyle=0;aspect=fixed;pointerEvents=1;shape=mxgraph.aws4.lambda_function;" vertex="1" parent="1">
          <mxGeometry x="1340" y="635" width="90" height="90" as="geometry" />
        </mxCell>
        <mxCell id="HbXS8LAjoYjg2OrgYMof-7" value="" style="outlineConnect=0;dashed=0;verticalLabelPosition=bottom;verticalAlign=top;align=center;html=1;shape=mxgraph.aws3.s3;fillColor=#E05243;gradientColor=none;" vertex="1" parent="1">
          <mxGeometry x="1430" y="370" width="90" height="100" as="geometry" />
        </mxCell>
        <mxCell id="HbXS8LAjoYjg2OrgYMof-10" value="CLIENTE" style="text;html=1;align=center;verticalAlign=middle;resizable=0;points=[];autosize=1;strokeColor=none;fillColor=none;" vertex="1" parent="1">
          <mxGeometry x="965" y="910" width="70" height="30" as="geometry" />
        </mxCell>
        <mxCell id="HbXS8LAjoYjg2OrgYMof-13" style="edgeStyle=orthogonalEdgeStyle;rounded=0;orthogonalLoop=1;jettySize=auto;html=1;entryX=0;entryY=0.5;entryDx=0;entryDy=0;entryPerimeter=0;" edge="1" parent="1" source="HbXS8LAjoYjg2OrgYMof-12" target="HbXS8LAjoYjg2OrgYMof-5">
          <mxGeometry relative="1" as="geometry">
            <mxPoint x="1050" y="620" as="targetPoint" />
          </mxGeometry>
        </mxCell>
        <mxCell id="HbXS8LAjoYjg2OrgYMof-12" value="" style="verticalLabelPosition=bottom;html=1;verticalAlign=top;strokeWidth=1;align=center;outlineConnect=0;dashed=0;outlineConnect=0;shape=mxgraph.aws3d.client;aspect=fixed;strokeColor=none;fillColor=#777777;" vertex="1" parent="1">
          <mxGeometry x="988.27" y="810" width="63.46" height="110" as="geometry" />
        </mxCell>
        <mxCell id="HbXS8LAjoYjg2OrgYMof-14" value="API GATE&lt;span style=&quot;background-color: initial;&quot;&gt;WAY&lt;/span&gt;" style="text;html=1;align=center;verticalAlign=middle;resizable=0;points=[];autosize=1;strokeColor=none;fillColor=none;" vertex="1" parent="1">
          <mxGeometry x="1120" y="758" width="100" height="30" as="geometry" />
        </mxCell>
        <mxCell id="HbXS8LAjoYjg2OrgYMof-15" value="Lambda com o cÃ³digo&amp;nbsp;&lt;div&gt;da lista de filmes&lt;div&gt;&lt;br&gt;&lt;/div&gt;&lt;/div&gt;" style="text;html=1;align=center;verticalAlign=middle;resizable=0;points=[];autosize=1;strokeColor=none;fillColor=none;" vertex="1" parent="1">
          <mxGeometry x="1325" y="720" width="140" height="60" as="geometry" />
        </mxCell>
        <mxCell id="HbXS8LAjoYjg2OrgYMof-17" value="Armazenamento do processo&amp;nbsp;&lt;div&gt;que o cliente realizou&lt;/div&gt;" style="text;html=1;align=center;verticalAlign=middle;resizable=0;points=[];autosize=1;strokeColor=none;fillColor=none;" vertex="1" parent="1">
          <mxGeometry x="1390" y="470" width="180" height="40" as="geometry" />
        </mxCell>
        <mxCell id="HbXS8LAjoYjg2OrgYMof-18" style="edgeStyle=orthogonalEdgeStyle;rounded=0;orthogonalLoop=1;jettySize=auto;html=1;entryX=0;entryY=0.5;entryDx=0;entryDy=0;entryPerimeter=0;" edge="1" parent="1" source="HbXS8LAjoYjg2OrgYMof-6" target="HbXS8LAjoYjg2OrgYMof-7">
          <mxGeometry relative="1" as="geometry" />
        </mxCell>
        <mxCell id="HbXS8LAjoYjg2OrgYMof-19" value="" style="verticalLabelPosition=bottom;html=1;verticalAlign=top;strokeWidth=1;align=center;outlineConnect=0;dashed=0;outlineConnect=0;shape=mxgraph.aws3d.end_user;strokeColor=none;fillColor=#777777;aspect=fixed;" vertex="1" parent="1">
          <mxGeometry x="900" y="820" width="49" height="100.46" as="geometry" />
        </mxCell>
      </root>
    </mxGraphModel>
  </diagram>
</mxfile>
